<svg version="1.0" xmlns="http://www.w3.org/2000/svg" width="300" height="300" viewBox="0 0 300 300" preserveAspectRatio="xMidYMid meet">
    <g transform="translate(0,300) scale(0.1,-0.1)" fill="#000000" stroke="none">
        <path d="M272 2724 c-231 -231 -273 -278 -270 -299 3 -22 38 10 303 275 270 270 297 300 270 299 -26 0 -70 -41 -303 -275z"/>
        <path d="M1188 1812 c-668 -667 -1188 -1195 -1188 -1205 0 -9 6 -17 12 -17 17 0 2398 2381 2398 2398 0 6 -8 12 -17 12 -10 0 -538 -520 -1205 -1188z"/>
        <path d="M2980 2402 c-22 -6 -2359 -2342 -2376 -2375 -13 -25 -13 -27 3 -27 17 0 2331 2303 2374 2363 23 30 22 46 -1 39z"/>
        <path d="M2695 300 c-271 -272 -297 -300 -270 -300 26 1 69 40 303 274 239 238 273 276 270 299 -3 25 -30 0 -303 -273z"/>
    </g>
</svg>
